<svg width="18" height="18" viewBox="0 0 18 18" fill="none" xmlns="http://www.w3.org/2000/svg">
<rect width="18" height="18" rx="2" fill="#333333"/>
<path fill-rule="evenodd" clip-rule="evenodd" d="M9.91148 8.15963L9.91148 3.11743C9.91148 2.65329 9.53522 2.27703 9.07111 2.27706C8.60697 2.27706 8.23074 2.65329 8.23074 3.11743L8.23074 8.15969L3.18845 8.15966C2.72431 8.15966 2.34808 8.53588 2.34808 9.00002C2.34811 9.46413 2.72437 9.84039 3.18845 9.84039L8.23068 9.84036L8.23068 14.8826C8.23071 15.3467 8.60697 15.723 9.07104 15.723C9.53518 15.723 9.91141 15.3468 9.91141 14.8826L9.91141 9.84036H14.9537C15.4178 9.84039 15.794 9.46413 15.794 8.99999C15.794 8.53585 15.4178 8.15963 14.9537 8.15962L9.91148 8.15963Z" fill="white"/>
</svg>
