<svg width="18" height="18" viewBox="0 0 18 18" fill="none" xmlns="http://www.w3.org/2000/svg">
<rect width="18" height="18" rx="2" fill="#333333"/>
<path fill-rule="evenodd" clip-rule="evenodd" d="M9.91142 9.8404L14.9536 9.8404C15.4178 9.8404 15.794 9.46414 15.794 9.00003C15.794 8.53589 15.4178 8.15967 14.9536 8.15967L9.91135 8.15967L9.57104 8.1596C9.07104 8.15967 9.53518 8.15967 9.07104 8.15967C8.60694 8.1597 9.01245 8.1596 8.62984 8.15967L8.23069 8.1596L3.18842 8.1596C2.72432 8.15963 2.34806 8.53589 2.34806 8.99997C2.34806 9.46411 2.72428 9.84033 3.18842 9.84033L8.23069 9.84033C8.64526 9.84033 8.67651 9.84033 9.07104 9.8404C9.53518 9.8404 9.53482 9.84033 9.91142 9.8404Z" fill="white"/>
</svg>
