<svg width="16" height="16" viewBox="0 0 16 16" fill="none" xmlns="http://www.w3.org/2000/svg">
<g clip-path="url(#clip0_79_60)">
<path fill-rule="evenodd" clip-rule="evenodd" d="M9.90097 7.99934L15.6051 2.29524C16.1301 1.77017 16.1301 0.918871 15.6051 0.393877C15.08 -0.131192 14.2288 -0.131192 13.7037 0.393877L7.99953 6.09805L2.29536 0.393802C1.77029 -0.131267 0.919059 -0.131267 0.39399 0.393802C-0.131004 0.918871 -0.131004 1.77017 0.39399 2.29517L6.09816 7.99927L0.39399 13.7034C-0.131004 14.2285 -0.131004 15.0798 0.39399 15.6048C0.919059 16.1299 1.77029 16.1299 2.29536 15.6048L7.99953 9.90063L13.7037 15.6048C14.2287 16.1299 15.08 16.1299 15.6051 15.6048C16.1301 15.0797 16.1301 14.2285 15.6051 13.7034L9.90097 7.99934Z" fill="#C5181B"/>
</g>
<defs>
<clipPath id="clip0_79_60">
<rect width="16" height="16" fill="white"/>
</clipPath>
</defs>
</svg>
