<svg width="18" height="18" viewBox="0 0 18 18" fill="none" xmlns="http://www.w3.org/2000/svg">
<g clip-path="url(#clip0_79_65)">
<path d="M9 6.75C9.82845 6.75 10.5 6.07843 10.5 5.25C10.5 4.42157 9.82845 3.75 9 3.75C8.17155 3.75 7.5 4.42157 7.5 5.25C7.5 6.07843 8.17155 6.75 9 6.75Z" fill="#5081BA"/>
<path d="M10.5 9C10.5 9.82845 9.82845 10.5 9 10.5C8.17155 10.5 7.5 9.82845 7.5 9C7.5 8.17155 8.17155 7.5 9 7.5C9.82845 7.5 10.5 8.17155 10.5 9Z" fill="#5081BA"/>
<path d="M9 14.25C9.82845 14.25 10.5 13.5784 10.5 12.75C10.5 11.9216 9.82845 11.25 9 11.25C8.17155 11.25 7.5 11.9216 7.5 12.75C7.5 13.5784 8.17155 14.25 9 14.25Z" fill="#5081BA"/>
<path fill-rule="evenodd" clip-rule="evenodd" d="M18 9C18 13.9705 13.9705 18 9 18C4.02944 18 0 13.9705 0 9C0 4.02944 4.02944 0 9 0C13.9705 0 18 4.02944 18 9ZM16.5 9C16.5 13.1421 13.1421 16.5 9 16.5C4.85786 16.5 1.5 13.1421 1.5 9C1.5 4.85786 4.85786 1.5 9 1.5C13.1421 1.5 16.5 4.85786 16.5 9Z" fill="#5081BA"/>
</g>
<defs>
<clipPath id="clip0_79_65">
<rect width="18" height="18" fill="white"/>
</clipPath>
</defs>
</svg>
