<svg width="16" height="16" viewBox="0 0 16 16" fill="none" xmlns="http://www.w3.org/2000/svg">
<g clip-path="url(#clip0_79_63)">
<path d="M15.8333 3.15335L12.5256 6.42305C12.5256 6.42305 11.5371 6.42305 10.5486 5.43454C9.56005 4.44602 9.56005 3.45751 9.56005 3.45751L12.8678 0.149787C11.0048 -0.30645 8.76163 0.301866 7.39292 1.67058C5.33985 3.72365 7.1648 6.34701 6.63252 6.87929C3.74302 9.88285 0.777474 12.164 0.701435 12.2781C-0.173021 13.1526 -0.21104 14.5593 0.625395 15.3957C1.46183 16.2322 2.86856 16.1941 3.74302 15.3197C3.85708 15.2056 6.29034 12.126 9.14183 9.27454C9.67411 8.74226 12.1834 10.6813 14.3125 8.59018C15.6432 7.22147 16.2895 5.01632 15.8333 3.15335ZM2.41233 14.5973C1.88005 14.5973 1.46183 14.1791 1.46183 13.6468C1.46183 13.0765 1.88005 12.6583 2.41233 12.6583C2.9446 12.6583 3.36282 13.0765 3.36282 13.6088C3.36282 14.1411 2.9446 14.5973 2.41233 14.5973Z" fill="#333333"/>
</g>
<defs>
<clipPath id="clip0_79_63">
<rect width="16" height="16" fill="white"/>
</clipPath>
</defs>
</svg>
