<svg width="14" height="20" viewBox="0 0 14 20" fill="none" xmlns="http://www.w3.org/2000/svg">
<g clip-path="url(#clip0_35_2968)">
<path d="M12.1859 1.07045C12.1859 0.771918 12.4584 0.529907 12.7946 0.529907C13.1308 0.529907 13.4033 0.771918 13.4033 1.07045V19.4488C13.4033 19.7473 13.1308 19.9893 12.7946 19.9893C12.4584 19.9893 12.1859 19.7473 12.1859 19.4488V1.07045Z" fill="white"/>
<path d="M0.0119629 1.07045C0.0119629 0.771918 0.284476 0.529907 0.620659 0.529907C0.956841 0.529907 1.22935 0.771918 1.22935 1.07045V19.4488C1.22935 19.7473 0.956841 19.9893 0.620659 19.9893C0.284476 19.9893 0.0119629 19.7473 0.0119629 19.4488V1.07045Z" fill="white"/>
<path d="M6.09894 3.23262C6.09894 2.93408 6.37145 2.69208 6.70763 2.69208C7.04382 2.69208 7.31633 2.93408 7.31633 3.23262V5.39478C7.31633 5.69332 7.04382 5.93532 6.70763 5.93532C6.37145 5.93532 6.09894 5.69332 6.09894 5.39478V3.23262Z" fill="white"/>
<path d="M6.09894 9.17854C6.09894 8.88 6.37145 8.638 6.70763 8.638C7.04382 8.638 7.31633 8.88 7.31633 9.17854V11.3407C7.31633 11.6392 7.04382 11.8812 6.70763 11.8812C6.37145 11.8812 6.09894 11.6392 6.09894 11.3407V9.17854Z" fill="white"/>
<path d="M6.09894 15.1245C6.09894 14.8259 6.37145 14.5839 6.70763 14.5839C7.04382 14.5839 7.31633 14.826 7.31633 15.1245V17.2866C7.31633 17.5852 7.04382 17.8272 6.70763 17.8272C6.37145 17.8272 6.09894 17.5852 6.09894 17.2866V15.1245Z" fill="white"/>
</g>
<defs>
<clipPath id="clip0_35_2968">
<rect width="14" height="20" fill="white"/>
</clipPath>
</defs>
</svg>
